# AST/ASF file generated using VICON BodyLanguage
# -----------------------------------------------
:version 1.10
:name VICON
:units
  mass 1.0
  length 0.45
  angle deg
:documentation
   .ast/.asf automatically generated from VICON data using
   VICON BodyBuilder and BodyLanguage model FoxedUp or BRILLIANT.MOD
:root
   order TX TY TZ RX RY RZ
   axis XYZ
   position 0 0 0  
   orientation 0 0 0 
:bonedata
  begin
     id 1 
     name lhipjoint
     direction 0.523584 -0.783993 0.333487 
     length 2.44404 
     axis 0 0 0  XYZ
  end
  begin
     id 2 
     name lfemur
     direction 0.34202 -0.939693 0  
     length 7.29523  
     axis 0 0 20  XYZ
    dof rx ry rz
    limits (-160.0 20.0)
           (-70.0 70.0)
           (-60.0 70.0)
  end
  begin
     id 3 
     name ltibia
     direction 0.34215 -0.939645 0   
     length 7.81194   
     axis 0 0 20   XYZ
    dof rx
    limits (-10.0 170.0)
  end
  begin
     id 4 
     name lfoot
     direction 0.0941847 -0.25877 0.961336   
     length 2.41437   
     axis -90 7.62852e-016 20   XYZ
    dof rx rz
    limits (-45.0 90.0)
           (-70.0 20.0)
  end
  begin
     id 5 
     name ltoes
     direction 1.53526e-011 -4.21768e-011 1   
     length 1.2048   
     axis -90 7.62852e-016 20   XYZ
    dof rx
    limits (-90.0 20.0)
  end
  begin
     id 6 
     name rhipjoint
     direction -0.46599 -0.814191 0.346332   
     length 2.35339  
     axis 0 0 0  XYZ 
  end
  begin
     id 7 
     name rfemur
     direction -0.34202 -0.939693 0   
     length 7.34966   
     axis 0 0 -20   XYZ
    dof rx ry rz
    limits (-160.0 20.0)
           (-70.0 70.0)
           (-70.0 60.0)
  end
  begin
     id 8 
     name rtibia
     direction -0.34202 -0.939693 0   
     length 7.89934   
     axis 0 0 -20   XYZ
    dof rx
    limits (-10.0 170.0)
 end
 begin
     id 9 
     name rfoot
     direction -0.0975468 -0.268008 0.958466   
     length 2.27725  
     axis -90 -7.62852e-016 -20   XYZ
    dof rx rz
    limits (-45.0 90.0)
           (-20.0 70.0)
  end
  begin
     id 10 
     name rtoes
     direction -1.53563e-011 -4.22022e-011 1   
     length 1.13683   
     axis -90 -7.62852e-016 -20   XYZ
    dof rx
    limits (-90.0 20.0)
  end
  begin
     id 11 
     name lowerback
     direction -0.00456414 0.999242 -0.0386661   
     length 2.16968   
     axis 0 0 0   XYZ
    dof rx ry rz
    limits (-20.0 45.0)
           (-30.0 30.0)
           (-30.0 30.0)
  end
  begin
     id 12 
     name upperback
     direction 0.0297078 0.998988 0.0337799   
     length 2.15674   
     axis 0 0 0   XYZ
    dof rx ry rz
    limits (-20.0 45.0)
           (-30.0 30.0)
           (-30.0 30.0)
  end
  begin
     id 13 
     name thorax
     direction 0.0309305 0.998202 0.0513506   
     length 2.16319   
     axis 0 0 0   XYZ
    dof rx ry rz
    limits (-20.0 45.0)
           (-30.0 30.0)
           (-30.0 30.0)
  end
  begin
     id 14 
     name lowerneck
     direction -0.103039 0.983474 0.148872   
     length 1.64318   
     axis 0 0 0   XYZ
    dof rx ry rz
    limits (-20.0 45.0)
           (-30.0 30.0)
           (-30.0 30.0)
  end
  begin
     id 15 
     name upperneck
     direction 0.128124 0.971079 -0.201469   
     length 1.68242   
     axis 0 0 0   XYZ
    dof rx ry rz
    limits (-20.0 45.0)
           (-30.0 30.0)
           (-30.0 30.0)
  end
  begin
     id 16
     name head
     direction 0.0496365 0.994919 -0.0875941  
     length 1.70108  
     axis 0 0 0   XYZ
    dof rx ry rz
    limits (-20.0 45.0)
           (-30.0 30.0)
           (-30.0 30.0)
  end
  begin
     id 17 
     name lclavicle
     direction 0.887148 0.430222 -0.166967  
     length 3.25763  
     axis 0 0 0   XYZ
    dof ry rz
    limits (-20.0 10.0)
           (0.0 20.0)
  end
  begin
     id 18 
     name lhumerus
     direction 1 -4.48962e-011 1.92156e-027   
     length 5.10755   
     axis 180 -30 -90   XYZ
    dof rx ry rz
    limits (-60.0 90.0)
           (-90.0 90.0)
           (-90.0 90.0)
  end
  begin
     id 19
     name lradius
     direction 1 -4.48958e-011 7.10963e-027   
     length 3.36253   
     axis 180 -30 -90   XYZ
    dof rx
    limits (-10.0 170.0)
  end
  begin
     id 20
     name lwrist
     direction 1 -4.48946e-011 1.82396e-026   
     length 1.68127   
     axis -1.15222e-014 90 90   XYZ
    dof ry
    limits (-180.0 0.0)
 end
  begin
     id 21 
     name lhand
     direction 1 -4.48919e-011 3.64759e-026   
     length 0.619088   
     axis -2.32787e-014 90 90   XYZ
    dof rx rz
    limits (-90.0 90.0)
           (-45.0 45.0)
  end
  begin
     id 22 
     name lfingers
     direction 1 -4.49012e-011 7.29744e-026   
     length 0.499125   
     axis -4.6558e-014 90 90   XYZ
    dof rx
    limits (0.0 90.0)
  end
  begin
     id 23
     name lthumb
     direction 0.707107 -6.35028e-011 0.707107   
     length 0.716646   
     axis -90 45 3.78391e-014   XYZ
    dof rx rz
    limits (-45.0 45.0)
           (-45.0 45.0)
  end
  begin
     id 24 
     name rclavicle
     direction -0.82886 0.533198 -0.169384   
     length 3.20647  
     axis 0 0 0   XYZ 
    dof ry rz
    limits (-10.0 20.0)
           (-20.0 0.0)
  end
  begin
     id 25 
     name rhumerus
     direction -1 -4.48973e-011 3.06863e-027  
     length 5.27387   
     axis 180 30 90   XYZ
    dof rx ry rz
    limits (-90.0 60.0)
           (-90.0 90.0)
           (-90.0 90.0)
  end
  begin
     id 26 
     name rradius
     direction -1 -4.48988e-011 9.4797e-027   
     length 3.40144   
     axis 180 30 90   XYZ
    dof rx
    limits (-10.0 170.0)
  end
  begin
     id 27 
     name rwrist
     direction -1 -4.48897e-011 1.82366e-026   
     length 1.70072   
     axis -1.15222e-014 -90 -90   XYZ
    dof ry
    limits (-180.0 0.0)
  end
  begin
     id 28
     name rhand
     direction -1 -4.48965e-011 3.64815e-026   
     length 0.742821   
     axis -2.32787e-014 -90 -90   XYZ
    dof rx rz
    limits (-90.0 90.0)
           (-45.0 45.0)
  end
  begin
     id 29
     name rfingers
     direction -1 -4.49016e-011 7.29754e-026   
     length 0.598881   
     axis -4.6558e-014 -90 -90   XYZ
    dof rx
    limits (0.0 90.0)
  end
  begin
     id 30
     name rthumb
     direction -0.707107 -6.3488e-011 0.707107   
     length 0.859877   
     axis -90 -45 -3.78391e-014   XYZ
    dof rx rz
    limits (-45.0 45.0)
           (-45.0 45.0)
  end
:hierarchy
  begin
    root lhipjoint rhipjoint lowerback
    lhipjoint lfemur
    lfemur ltibia
    ltibia lfoot
    lfoot ltoes
    rhipjoint rfemur
    rfemur rtibia
    rtibia rfoot
    rfoot rtoes
    lowerback upperback
    upperback thorax
    thorax lowerneck lclavicle rclavicle
    lowerneck upperneck
    upperneck head
    lclavicle lhumerus
    lhumerus lradius
    lradius lwrist
    lwrist lhand lthumb
    lhand lfingers
    rclavicle rhumerus
    rhumerus rradius
    rradius rwrist
    rwrist rhand rthumb
    rhand rfingers
  end

#!OML:ASF F:\Work\Patient Classification 1\justin\Session 1\justin.ASF
:FULLY-SPECIFIED
:DEGREES
2366
root 0.205966 18.3533 -4.80559 0.922283 -8.05671 -2.38287
lowerback 7.89413 -1.56423 -0.375291
upperback -0.690218 -1.8593 5.44847
thorax -4.96452 -0.840745 6.16084
lowerneck -14.5056 -8.18558 -18.1591
upperneck 16.8956 -9.5294 11.8464
head 9.1678 -4.56034 5.821
rclavicle -6.41081e-015 -7.15625e-014
rhumerus -49.1974 -15.0578 -69.1321
rradius 40.316
rwrist -10.0368
rhand -21.7887 15.5139
rfingers 7.12502
rthumb 4.61278 -14.4159
lclavicle -6.41081e-015 -7.15625e-014
lhumerus -41.6848 1.48251 85.5366
lradius 43.1375
lwrist 7.44569
lhand -18.927 30.2932
lfingers 7.12502
lthumb 7.37564 60.1446
rfemur -4.81789 3.91497 23.1852
rtibia 20.5226
rfoot -12.2369 -1.21077
rtoes -6.07069
lfemur 3.02434 4.04215 -15.7744
ltibia 12.0738
lfoot -11.3904 2.94435
ltoes -16.3152
2367
root 0.197115 18.353 -4.80528 0.82574 -7.61048 -2.55478
lowerback 7.95855 -1.54489 -0.432469
upperback -0.923128 -1.82729 5.43937
thorax -5.24807 -0.813681 6.19278
lowerneck -14.2035 -8.13488 -18.2545
upperneck 17.0143 -9.4671 11.6799
head 9.14002 -4.56512 5.79459
rclavicle 4.96962e-015 4.77083e-015
rhumerus -49.3463 -15.7497 -68.8594
rradius 38.6042
rwrist -10.5939
rhand -22.6737 14.5049
rfingers 7.12502
rthumb 3.75822 -15.4417
lclavicle 4.96962e-015 4.77083e-015
lhumerus -42.1827 3.38606 84.124
lradius 42.2879
lwrist 6.38238
lhand -17.8386 32.5506
lfingers 7.12502
lthumb 8.42614 62.3625
rfemur -4.66105 3.85089 23.4591
rtibia 20.4704
rfoot -12.2998 -1.63752
rtoes -5.76568
lfemur 2.98357 3.83564 -15.5114
ltibia 12.2211
lfoot -11.443 2.70531
ltoes -16.4477
2368
root 0.195448 18.349 -4.796 0.602264 -7.10591 -2.48519
lowerback 7.95171 -1.5096 -0.604296
upperback -1.02417 -1.7985 5.31582
thorax -5.35207 -0.791967 6.15898
lowerneck -14.1403 -8.09113 -18.2559
upperneck 17.2531 -9.42606 11.6308
head 9.2013 -4.55683 5.78945
rclavicle -1.24737e-014 6.04305e-014
rhumerus -49.258 -16.612 -68.5425
rradius 36.6107
rwrist -10.6929
rhand -23.6054 13.5146
rfingers 7.12502
rthumb 2.85844 -16.4459
lclavicle -1.24737e-014 6.04305e-014
lhumerus -42.4345 5.01011 82.769
lradius 41.1561
lwrist 5.46129
lhand -17.9789 32.7908
lfingers 7.12502
lthumb 8.29074 62.6082
rfemur -4.3599 3.48411 23.3982
rtibia 20.4767
rfoot -12.4596 -1.78553
rtoes -5.81462
lfemur 3.17511 3.65992 -15.5481
ltibia 12.2735
lfoot -11.5087 2.42972
ltoes -16.71
2369
root 0.200377 18.3434 -4.78104 0.323198 -6.60373 -2.38232
lowerback 7.82161 -1.47006 -0.679741
upperback -0.996938 -1.76762 5.08721
thorax -5.25691 -0.779924 5.94595
lowerneck -14.3815 -8.0449 -18.0369
upperneck 17.6142 -9.4104 11.6939
head 9.35811 -4.52708 5.78172
rclavicle -1.7344e-014 6.04305e-014
rhumerus -49.0396 -17.9873 -68.0815
rradius 34.3774
rwrist -10.4144
rhand -23.9716 13.1827
rfingers 7.12502
rthumb 2.50479 -16.7823
lclavicle -1.7344e-014 6.04305e-014
lhumerus -42.2425 6.4749 81.288
lradius 39.6219
lwrist 4.67825
lhand -18.1654 32.0752
lfingers 7.12502
lthumb 8.11066 61.8995
rfemur -3.96839 2.90595 23.2449
rtibia 20.4445
rfoot -12.5424 -1.70956
rtoes -6.28804
lfemur 3.44642 3.52846 -15.6408
ltibia 12.3404
lfoot -11.5891 2.0776
ltoes -16.7398
2370
root 0.195706 18.3413 -4.77172 0.253976 -6.12274 -2.17542
lowerback 7.48813 -1.43865 -0.990128
upperback -0.939183 -1.77356 4.87173
thorax -5.00332 -0.783228 5.8765
lowerneck -14.9282 -8.05549 -17.7402
upperneck 17.9726 -9.40539 11.6127
head 9.56124 -4.49912 5.7001
rclavicle -2.50966e-015 -1.35174e-014
rhumerus -48.6752 -19.4354 -67.58
rradius 32.1362
rwrist -9.73299
rhand -24.1206 12.9787
rfingers 7.12502
rthumb 2.36088 -16.9879
lclavicle -2.50966e-015 -1.35174e-014
lhumerus -41.9657 8.08093 79.8061
lradius 38.3692
lwrist 3.98874
lhand -18.1287 32.5427
lfingers 7.12502
lthumb 8.14612 62.3657
rfemur -3.82674 2.62211 23.0368
rtibia 20.3731
rfoot -12.5405 -1.89667
rtoes -6.55301
lfemur 3.40384 3.36097 -15.8191
ltibia 12.4201
lfoot -11.6422 1.74447
ltoes -16.5604
2371
root 0.187205 18.3397 -4.77316 0.196936 -5.71377 -2.44001
lowerback 7.39221 -1.4514 -0.940733
upperback -0.920376 -1.78601 4.91767
thorax -4.92805 -0.792103 5.89368
lowerneck -15.4594 -8.04474 -17.7579
upperneck 18.3701 -9.29406 11.5077
head 9.77556 -4.44676 5.67922
rclavicle -3.57812e-015 5.24792e-014
rhumerus -48.1916 -20.841 -66.7091
rradius 29.602
rwrist -8.37115
rhand -23.8438 13.3402
rfingers 7.12502
rthumb 2.62823 -16.6233
lclavicle -3.57812e-015 5.24792e-014
lhumerus -41.8825 9.89047 78.5407
lradius 37.2129
lwrist 3.86322
lhand -19.3313 34.2543
lfingers 7.12502
lthumb 6.98535 64.119
rfemur -3.66889 2.55318 23.3908
rtibia 20.2862
rfoot -12.5316 -2.24156
rtoes -6.54517
lfemur 3.37038 3.18644 -15.4621
ltibia 12.4985
lfoot -11.6395 1.51758
ltoes -16.5472
2372
root 0.183425 18.3346 -4.76477 0.0185779 -5.47141 -2.72657
lowerback 7.368 -1.35181 -0.817026
upperback -0.94399 -1.63911 4.95162
thorax -4.95745 -0.720968 5.84274
lowerneck -15.4967 -8.02531 -18.0203
upperneck 18.5583 -9.24366 11.662
head 9.86295 -4.42855 5.7911
rclavicle -1.38901e-014 2.46493e-014
rhumerus -47.9791 -22.1097 -65.8454
rradius 27.5165
rwrist -7.43409
rhand -23.8879 12.5222
rfingers 7.12502
rthumb 2.58558 -17.4418
lclavicle -1.38901e-014 2.46493e-014
lhumerus -41.7975 11.4401 77.4502
lradius 35.7892
lwrist 4.50904
lhand -22.2504 35.0559
lfingers 7.12502
lthumb 4.16699 64.9949
rfemur -3.34478 2.51933 23.7433
rtibia 20.2061
rfoot -12.5778 -2.46708
rtoes -6.58367
lfemur 3.56194 3.035 -15.1214
ltibia 12.5652
lfoot -11.7094 1.45575
ltoes -16.6969
2373
root 0.18741 18.3307 -4.7459 -0.160573 -5.20968 -2.73141
lowerback 7.23119 -1.22468 -0.854588
upperback -0.98412 -1.47812 4.84344
thorax -4.94062 -0.640973 5.72677
lowerneck -15.5204 -8.01504 -18.1318
upperneck 18.7568 -9.24027 11.7807
head 9.94914 -4.42579 5.8586
rclavicle 1.49089e-015 -2.70347e-014
rhumerus -48.0865 -23.1642 -65.0892
rradius 25.8294
rwrist -6.6511
rhand -23.9901 11.9586
rfingers 7.12502
rthumb 2.48696 -18.0066
lclavicle 1.49089e-015 -2.70347e-014
lhumerus -41.6852 13.5308 75.6992
lradius 33.7226
lwrist 3.10986
lhand -22.8348 31.6105
lfingers 7.12502
lthumb 3.60266 61.5598
rfemur -3.00514 2.20589 23.6986
rtibia 20.1088
rfoot -12.7061 -2.39294
rtoes -6.55469
lfemur 3.79627 2.82136 -15.148
ltibia 12.5774
lfoot -11.838 1.41291
ltoes -16.4889
2374
root 0.195566 18.329 -4.73102 -0.325185 -4.95626 -2.61751
lowerback 7.12474 -1.1205 -0.97535
upperback -1.06354 -1.35475 4.70476
thorax -4.97666 -0.576093 5.63303
lowerneck -15.5323 -7.99197 -18.1624
upperneck 19.0691 -9.2177 11.7572
head 10.0588 -4.42485 5.8662
rclavicle -2.39536e-014 1.51076e-014
rhumerus -48.2978 -24.2552 -64.1598
rradius 24.1183
rwrist -5.38495
rhand -23.5059 11.8734
rfingers 7.12502
rthumb 2.95457 -18.0859
lclavicle -2.39536e-014 1.51076e-014
lhumerus -41.7034 15.2895 74.2234
lradius 32.4129
lwrist 2.13272
lhand -22.2379 31.9503
lfingers 7.12502
lthumb 4.17906 61.8891
rfemur -2.73089 1.845 23.487
rtibia 20.0413
rfoot -12.8172 -2.23982
rtoes -6.51097
lfemur 4.02518 2.58146 -15.3338
ltibia 12.4591
lfoot -11.8243 1.39081
ltoes -16.0792
2375
root 0.203763 18.327 -4.7173 -0.538787 -4.63677 -2.39349
lowerback 6.99427 -0.989273 -1.19666
upperback -1.07721 -1.2081 4.52628
thorax -4.9311 -0.500004 5.5494
lowerneck -15.4801 -8.00789 -18.1816
upperneck 19.215 -9.24805 11.7204
head 10.1053 -4.44808 5.85529
rclavicle -3.58434e-015 -1.66979e-014
rhumerus -48.5335 -25.6159 -63.0319
rradius 22.4743
rwrist -3.66628
rhand -22.9815 11.0753
rfingers 7.12502
rthumb 3.46101 -18.8763
lclavicle -3.58434e-015 -1.66979e-014
lhumerus -41.687 16.5117 73.1806
lradius 31.5486
lwrist 2.32252
lhand -21.9409 34.8592
lfingers 7.12502
lthumb 4.46584 64.7921
rfemur -2.42323 1.45615 23.1625
rtibia 19.9746
rfoot -12.8598 -2.18232
rtoes -6.57514
lfemur 4.26705 2.35403 -15.6388
ltibia 12.3514
lfoot -11.8334 1.35795
ltoes -16.2792
2376
root 0.206919 18.3252 -4.70689 -0.751275 -4.23329 -2.31983
lowerback 6.93323 -0.920308 -1.33019
upperback -1.1215 -1.13132 4.42433
thorax -4.95022 -0.458256 5.5083
lowerneck -15.3892 -7.98538 -18.1415
upperneck 19.3313 -9.21446 11.5611
head 10.1137 -4.45057 5.79909
rclavicle 6.00004e-015 -2.62396e-014
rhumerus -48.8448 -26.2844 -62.3056
rradius 21.3485
rwrist -2.36487
rhand -23.0914 9.34429
rfingers 7.12502
rthumb 3.35486 -20.6091
lclavicle 6.00004e-015 -2.62396e-014
lhumerus -41.8467 17.7207 72.1832
lradius 30.6438
lwrist 3.07935
lhand -22.3298 37.6054
lfingers 7.12502
lthumb 4.09033 67.5459
rfemur -2.10563 1.10816 23.0523
rtibia 19.8636
rfoot -12.8578 -2.27254
rtoes -6.75589
lfemur 4.45323 2.14679 -15.7308
ltibia 12.3479
lfoot -11.9035 1.20446
ltoes -16.6562
2377
root 0.203252 18.3218 -4.70345 -0.916653 -3.87008 -2.62279
lowerback 7.01567 -0.898727 -1.16947
upperback -1.28769 -1.07963 4.47451
thorax -5.17888 -0.429136 5.47171
lowerneck -15.0146 -7.89349 -18.1247
upperneck 19.4523 -9.11067 11.315
head 10.0561 -4.44078 5.73165
rclavicle 1.24924e-014 1.98785e-014
rhumerus -49.4033 -27.0175 -61.2531
rradius 20.2618
rwrist -0.473038
rhand -22.7282 9.52837
rfingers 7.12502
rthumb 3.70556 -20.4192
lclavicle 1.24924e-014 1.98785e-014
lhumerus -42.2524 19.0755 70.9765
lradius 29.6162
lwrist 3.38138
lhand -22.6983 39.1759
lfingers 7.12502
lthumb 3.7344 69.1229
rfemur -1.79892 1.06103 23.4419
rtibia 19.7219
rfoot -12.8709 -2.58633
rtoes -6.85735
lfemur 4.59742 1.95484 -15.3473
ltibia 12.3753
lfoot -11.9147 0.981664
ltoes -16.614
